<?xml version="1.0" encoding="utf-8"?>
<!-- Generator: Adobe Illustrator 18.0.0, SVG Export Plug-In . SVG Version: 6.00 Build 0)  -->
<!DOCTYPE svg PUBLIC "-//W3C//DTD SVG 1.1//EN" "http://www.w3.org/Graphics/SVG/1.1/DTD/svg11.dtd">
<svg version="1.1" id="Layer_1" xmlns="http://www.w3.org/2000/svg" xmlns:xlink="http://www.w3.org/1999/xlink" x="0px" y="0px"
	 viewBox="0 0 196 72" enable-background="new 0 0 196 72" xml:space="preserve">
<g>
	<path fill="#662D91" d="M2,61V12h9l3,9v38h28v11H5L2,61z"/>
	<path fill="#331749" d="M74,61V12h9l3,9v38h28v11H77L74,61z"/>
	<path fill="#662D91" d="M52,61V12h9l3,9v49h-9L52,61z"/>
	<path fill="#662D91" d="M164,22V2h6v20H164z"/>
	<path fill="#662D91" d="M149,12h-25v-0.1V61l3,9h9V57h16l4,13h13L149,12z M136,46V23h6l7,23H136z"/>
	<circle fill="#662D91" cx="184" cy="12" r="10"/>
	<path fill="#331749" d="M188.8,3.3c0.8,1.4,1.3,3.1,1.3,4.8c0,5.5-4.5,10-10,10c-1.8,0-3.4-0.5-4.8-1.3c1.7,3.1,5,5.2,8.7,5.2
		c5.5,0,10-4.5,10-10C194,8.2,191.9,5,188.8,3.3z"/>
	<polygon fill="#4D226D" points="52,12 61,12 52,61 	"/>
	<polygon fill="#4D226D" points="2,12 11,12 2,61 	"/>
	<polygon fill="#662D91" points="74,12 83,12 74,61 	"/>
	<polygon fill="#4D226D" points="124,12 124,12 136,23 136,23 136,46 	"/>
	<polygon fill="#331749" points="64,70 55,70 64,21 	"/>
	<polygon fill="#331749" points="136,70 127,70 124,61 	"/>
	<polygon fill="#331749" points="152,57 136,57 136,46 	"/>
	<polygon fill="#331749" points="169,70 156,70 149,12 	"/>
	<polygon fill="#4D226D" points="149,12 149,46 142,23 	"/>
	<polygon fill="#331749" points="42,59 5,70 14,21 14,59 	"/>
	<polygon fill="#4D226D" points="114,59 77,70 86,21 86,59 	"/>
	<polygon fill="#331749" points="164,22 170,22 170,12 	"/>
</g>
</svg>
