<?xml version="1.0" encoding="utf-8"?>
<!-- Generator: Adobe Illustrator 23.0.1, SVG Export Plug-In . SVG Version: 6.00 Build 0)  -->
<svg version="1.1" id="Layer_1" xmlns="http://www.w3.org/2000/svg" xmlns:xlink="http://www.w3.org/1999/xlink" x="0px" y="0px"
	 viewBox="0 0 640 640" style="enable-background:new 0 0 640 640;" xml:space="preserve">
<g>
	<path d="M176.16,284.43c1.14-2.19,2.71-4.14,4.39-5.95c0.43-0.45,0.85-0.9,1.29-1.34l1.36-1.26c0.91-0.86,1.89-1.61,2.87-2.39
		c3.95-3.04,8.36-5.48,12.97-7.46c9.26-3.83,19.33-5.6,29.24-5.61c9.9,0,19.96,1.75,29.24,5.56c4.61,1.97,9.03,4.4,12.98,7.46
		c0.98,0.79,1.96,1.53,2.87,2.4l1.36,1.27c0.44,0.44,0.87,0.9,1.29,1.35c1.67,1.82,3.24,3.78,4.35,5.99
		c-4.4-2.12-8.73-3.63-13.06-4.91c-4.33-1.27-8.65-2.24-12.96-3.01c-8.66-1.42-17.3-2.1-26.08-2.11c-8.77-0.01-17.4,0.69-26.07,2.12
		c-4.31,0.78-8.63,1.76-12.97,3.03C184.9,280.84,180.57,282.34,176.16,284.43z"/>
	<path d="M359.62,284.43c1.14-2.19,2.71-4.14,4.39-5.95c0.43-0.45,0.85-0.9,1.29-1.34l1.36-1.26c0.91-0.86,1.89-1.61,2.87-2.39
		c3.95-3.04,8.36-5.48,12.97-7.46c9.26-3.83,19.33-5.6,29.24-5.61c9.9,0,19.96,1.75,29.24,5.56c4.61,1.97,9.03,4.4,12.98,7.46
		c0.98,0.79,1.96,1.53,2.87,2.4l1.36,1.27c0.44,0.44,0.87,0.9,1.29,1.35c1.67,1.82,3.24,3.78,4.35,5.99
		c-4.4-2.12-8.73-3.63-13.06-4.91c-4.33-1.27-8.65-2.24-12.96-3.01c-8.66-1.42-17.3-2.1-26.08-2.11c-8.77-0.01-17.4,0.69-26.07,2.12
		c-4.31,0.78-8.63,1.76-12.97,3.03C368.37,280.84,364.04,282.34,359.62,284.43z"/>
	<path d="M400.45,360.89c-6.25,3.12-12.76,5.27-19.37,7.26c-6.61,1.96-13.33,3.47-20.08,4.85c-6.77,1.34-13.58,2.34-20.42,3.27
		c-3.42,0.39-6.85,0.7-10.28,1.06l-10.3,0.8c-3.44,0.16-6.88,0.45-10.34,0.74c-3.46,0.22-6.92,0.5-10.4,0.66
		c-6.96,0.26-13.92-0.14-20.8-1.53c-6.87-1.35-13.68-3.25-20.29-5.95c-1.65-0.68-3.28-1.42-4.9-2.18c-1.62-0.81-3.21-1.61-4.78-2.53
		c-0.78-0.47-1.56-0.91-2.33-1.4c-0.77-0.51-1.53-1-2.28-1.52c-1.51-1.07-2.94-2.19-4.33-3.53c-0.43-0.41-0.44-1.09-0.02-1.52
		c0.19-0.2,0.44-0.31,0.7-0.32l0.09-0.01c3.55-0.24,7.02-0.39,10.43-0.55c1.69-0.05,3.41-0.16,5.07-0.18
		c1.69-0.08,3.36-0.11,5.02-0.14c6.66-0.12,13.24-0.19,19.79-0.05c1.64,0.04,3.27,0.1,4.9,0.18c1.64,0.06,3.27,0.16,4.9,0.31
		c3.25,0.32,6.53,0.62,9.79,1.14l9.85,1.4c3.3,0.38,6.61,0.73,9.92,0.97l9.96,0.56c3.32,0.1,6.64,0.24,9.97,0.3
		c6.65,0.18,13.32,0.3,19.98,0.08c6.67-0.12,13.34-0.45,20-1.07l4.99-0.51c1.65-0.22,3.32-0.4,4.97-0.66
		c3.31-0.44,6.65-1.03,9.84-1.79l0.07-0.02c0.54-0.13,1.08,0.2,1.21,0.74C401.08,360.22,400.85,360.68,400.45,360.89z"/>
</g>
<g>
	<path d="M424.81,172.72l28.34-33.91H428.8c-1.71,0-2.99-0.38-3.86-1.13c-0.87-0.75-1.3-1.74-1.3-2.97c0-1.28,0.43-2.31,1.3-3.1
		c0.87-0.79,2.15-1.19,3.86-1.19h31.38c4.06,0,6.1,1.89,6.1,5.68c0,1.81-0.34,3.25-1.02,4.33c-0.68,1.08-2.05,2.82-4.1,5.23
		l-26.49,31.54h29.2c1.73,0,3.02,0.36,3.88,1.07c0.85,0.71,1.28,1.71,1.28,2.99c0,1.33-0.43,2.38-1.28,3.16
		c-0.85,0.78-2.15,1.17-3.88,1.17h-35.83c-2.43,0-4.27-0.55-5.49-1.64c-1.23-1.09-1.84-2.55-1.84-4.38c0-0.63,0.1-1.2,0.3-1.73
		c0.2-0.53,0.47-1.02,0.81-1.49c0.34-0.46,0.81-1.05,1.41-1.77C423.83,173.87,424.36,173.25,424.81,172.72z"/>
</g>
<g>
	<path d="M487.81,129.72l28.34-33.91H491.8c-1.71,0-2.99-0.38-3.86-1.13c-0.87-0.75-1.3-1.74-1.3-2.97c0-1.28,0.43-2.31,1.3-3.1
		c0.87-0.79,2.15-1.19,3.86-1.19h31.38c4.06,0,6.1,1.89,6.1,5.68c0,1.81-0.34,3.25-1.02,4.33c-0.68,1.08-2.05,2.82-4.1,5.23
		l-26.49,31.54h29.2c1.73,0,3.02,0.36,3.88,1.07c0.85,0.71,1.28,1.71,1.28,2.99c0,1.33-0.43,2.38-1.28,3.16
		c-0.85,0.78-2.15,1.17-3.88,1.17h-35.83c-2.43,0-4.27-0.55-5.49-1.64c-1.23-1.09-1.84-2.55-1.84-4.38c0-0.63,0.1-1.2,0.3-1.73
		c0.2-0.53,0.47-1.02,0.81-1.49c0.34-0.46,0.81-1.05,1.41-1.77C486.83,130.87,487.36,130.25,487.81,129.72z"/>
</g>
<g>
	<path d="M550.81,90.72l28.34-33.91H554.8c-1.71,0-2.99-0.38-3.86-1.13c-0.87-0.75-1.3-1.74-1.3-2.97c0-1.28,0.43-2.31,1.3-3.1
		c0.87-0.79,2.15-1.19,3.86-1.19h31.38c4.06,0,6.1,1.89,6.1,5.68c0,1.81-0.34,3.25-1.02,4.33c-0.68,1.08-2.05,2.82-4.1,5.23
		L560.67,95.2h29.2c1.73,0,3.02,0.36,3.88,1.07c0.85,0.71,1.28,1.71,1.28,2.99c0,1.33-0.43,2.38-1.28,3.16
		c-0.85,0.78-2.15,1.17-3.88,1.17h-35.83c-2.43,0-4.27-0.55-5.49-1.64c-1.23-1.09-1.84-2.55-1.84-4.38c0-0.63,0.1-1.2,0.3-1.73
		c0.2-0.53,0.47-1.02,0.81-1.49c0.34-0.46,0.81-1.05,1.41-1.77C549.83,91.87,550.36,91.25,550.81,90.72z"/>
</g>
<g>
	<path d="M175.35,429.79c-1.38-3.44-7.02-1.94-5.62,1.55c4.86,12.11-4.44,27.03-15.5,32.19c-6.12,2.86-13.12,1.95-19.3-0.26
		c-3.3-1.18-10.47-4.06-11.71-7.49c-0.57-1.58-2.65-2.95-4.28-1.74c-2.51,1.86-6.27,2.31-9.29,2.56c-4.2,0.34-8.92,0.24-12.75-1.72
		c-4.82-2.47-5.86-8.7-4.56-13.55c1.53-5.73,5.84-10.61,11.27-12.92c2.79-1.19,1.2-5.41-1.47-5.43c-3.26-0.02-6.51-0.71-8.3-3.69
		c-1.48-2.48-1.79-6.07-1.25-8.84c1.42-7.24,11.11-9.48,17.36-8.07c2.4,0.54,4.66-2.02,3.29-4.28c-1.84-3.03-2.46-7.81-2.19-11.3
		c0.31-3.87,3.5-7.34,6.87-8.97c3.58-1.73,8.07-2.07,11.49,0.09c2.46,1.55,4.7,3.49,6.81,5.48c1.43,1.35,3.52,0.99,4.58-0.59
		c2.28-3.39,5.92-6.98,9.95-8.04c7.73-2.03,9.63,6.38,9.43,12.19c-0.13,3.75,5.7,3.75,5.83,0c0.3-8.62-3.51-18.75-13.76-18.29
		c-5.65,0.25-10.71,4.01-14.36,8.37c-2.25-1.99-4.68-3.88-7.31-5.15c-4.96-2.4-11.68-1.34-16.34,1.3c-4.5,2.55-8.42,7.42-8.95,12.68
		c-0.32,3.14-0.04,6.93,0.9,10.34c-8.65,0.03-17.9,4.44-19.38,13.55c-0.72,4.4-0.07,9.59,2.53,13.32c1.37,1.97,3.16,3.34,5.17,4.24
		c-3.61,3.2-6.35,7.48-7.69,12.02c-1.93,6.53-0.64,14.9,5.03,19.23c4.56,3.48,10.81,4.23,16.39,3.97c3.46-0.16,7.72-0.54,11.16-2.04
		c3.02,3.75,8.31,6.19,12.39,7.82c7.52,3.01,16.27,4.13,23.92,0.93C169.63,463.38,181.38,444.78,175.35,429.79z"/>
	<path d="M136.06,395.73c22.7,8.44,46.48,0.4,67.7-8.47c2.27-0.95,1.28-4.71-1.03-3.75c-20.59,8.6-43.57,16.67-65.63,8.47
		C134.75,391.11,133.73,394.86,136.06,395.73L136.06,395.73z"/>
	<path d="M157.59,433.68c6.41-7.73,15.46-12.18,24.68-15.68c10.34-3.93,21.03-6.82,31.91-8.74c2.46-0.43,1.42-4.18-1.03-3.75
		c-11.63,2.05-23.06,5.2-34.04,9.56c-9.08,3.61-17.93,8.21-24.27,15.86C153.26,432.84,155.99,435.61,157.59,433.68L157.59,433.68z"
		/>
	<path d="M127.35,413.16c14.18,3.23,28.88,2.57,42.69-2.02c2.36-0.79,1.35-4.54-1.03-3.75c-13.15,4.37-27.1,5.1-40.62,2.02
		C125.94,408.86,124.9,412.6,127.35,413.16L127.35,413.16z"/>
</g>
</svg>
